<svg width="26" height="33" viewBox="0 0 26 33" fill="none" xmlns="http://www.w3.org/2000/svg">
<path d="M-0.000450373 5.6018L6.9671 19.5007C6.86824 19.588 6.75488 19.6993 6.66943 19.7799C6.21205 20.2175 5.92398 20.5801 5.74543 20.8989C5.66048 21.0431 5.59022 21.1954 5.53571 21.3536C5.49448 21.4889 5.46679 21.7377 5.46679 21.7377L5.44979 22.0525L6.72757 24.6014L7.84502 24.0412L12.3265 32.9808L14.5614 31.8604L10.0799 22.9208L19.0195 18.4394L23.501 27.379L25.7359 26.2586L21.2544 17.319L22.3719 16.7588L21.0941 14.2099L20.8317 14.0352C20.8317 14.0352 20.6147 13.9091 20.4816 13.8612C20.3226 13.8101 20.1589 13.775 19.9929 13.7566C19.6306 13.7089 19.1678 13.7228 18.5423 13.828C18.4266 13.8482 18.2707 13.8719 18.1416 13.8988L11.1741 -2.00272e-05L8.93915 1.12034L9.49934 2.2378L2.79463 5.59889L2.23445 4.48144L-0.000450373 5.6018ZM3.915 7.83379L6.1499 6.71343L11.2089 16.8051C10.3731 17.2521 9.62442 17.6554 9.02666 18.0305L3.915 7.83379ZM8.3848 5.59306L10.6197 4.4727L15.7314 14.6694C15.0714 14.9234 14.302 15.2825 13.4438 15.6848L8.3848 5.59306Z" fill="white"/>
</svg>
