<svg width="11" height="13" viewBox="0 0 11 13" fill="none" xmlns="http://www.w3.org/2000/svg">
<path d="M5.48571 0C6.94062 0 8.33593 0.577957 9.3647 1.60673C10.3935 2.6355 10.9714 4.03081 10.9714 5.48571C10.9714 7.35939 9.94987 8.89295 8.87345 9.99314C8.33565 10.5369 7.74883 11.0298 7.12046 11.4658L6.8608 11.6425L6.7389 11.7236L6.5091 11.8699L6.30431 11.9948L6.05074 12.1423C5.87863 12.2406 5.68389 12.2922 5.48571 12.2922C5.28754 12.2922 5.09279 12.2406 4.92069 12.1423L4.66712 11.9948L4.35017 11.7998L4.23314 11.7236L3.98324 11.5572C3.30535 11.0985 2.67392 10.5747 2.09798 9.99314C1.02156 8.89234 0 7.35939 0 5.48571C0 4.03081 0.577957 2.6355 1.60673 1.60673C2.6355 0.577957 4.03081 0 5.48571 0ZM5.48571 3.65714C5.24558 3.65714 5.0078 3.70444 4.78595 3.79633C4.5641 3.88823 4.36252 4.02292 4.19272 4.19272C4.02292 4.36252 3.88823 4.5641 3.79633 4.78595C3.70444 5.0078 3.65714 5.24558 3.65714 5.48571C3.65714 5.72585 3.70444 5.96363 3.79633 6.18548C3.88823 6.40733 4.02292 6.60891 4.19272 6.77871C4.36252 6.94851 4.5641 7.0832 4.78595 7.17509C5.0078 7.26699 5.24558 7.31429 5.48571 7.31429C5.97068 7.31429 6.43579 7.12163 6.77871 6.77871C7.12163 6.43579 7.31429 5.97068 7.31429 5.48571C7.31429 5.00075 7.12163 4.53564 6.77871 4.19272C6.43579 3.8498 5.97068 3.65714 5.48571 3.65714Z" fill="black"/>
</svg>
