<svg width="21" height="21" viewBox="0 0 21 21" fill="none" xmlns="http://www.w3.org/2000/svg">
<path d="M1.125 0.5H5.0625C5.38871 0.5 5.68746 0.783747 5.6875 1.16504C5.6875 2.48482 5.86619 3.75965 6.2002 4.96484L6.35254 5.47656C6.42381 5.71961 6.36721 5.9799 6.1875 6.16602L3.71289 8.72852L3.46875 8.98145L3.62402 9.29688C5.29002 12.6877 7.97446 15.4571 11.252 17.1963L11.584 17.373L11.8457 17.1016L14.3213 14.5381C14.4918 14.3618 14.7365 14.3101 14.9414 14.3828L14.9473 14.3848C16.259 14.8335 17.6747 15.0752 19.125 15.0752C19.4512 15.0752 19.75 15.3599 19.75 15.7412V19.8066C19.75 20.188 19.4512 20.4727 19.125 20.4727C8.85376 20.4727 0.5 11.846 0.5 1.16504C0.500043 0.783747 0.798786 0.5 1.125 0.5Z" fill="#BBFF7F" stroke="#BBFF7F"/>
</svg>
