<svg width="27" height="28" viewBox="0 0 27 28" fill="none" xmlns="http://www.w3.org/2000/svg">
<path d="M13.5 3.2959C19.171 3.2959 23.7997 8.06216 23.7998 13.9795C23.7998 19.8971 19.1709 24.667 13.5 24.667C11.4967 24.667 9.63258 24.0624 8.04785 23.0322L7.82422 22.8867L7.57812 22.9922L3.74805 24.6357C3.65535 24.6752 3.55148 24.6782 3.45215 24.6357C3.27728 24.559 3.17004 24.3565 3.20801 24.1514L3.2334 24.0635L4.81934 20.0967L4.91211 19.8652L4.7832 19.6514C3.78558 18.0064 3.2002 16.0659 3.2002 13.9795C3.20028 8.0622 7.82828 3.29601 13.5 3.2959ZM13.5 4.16016C8.24536 4.16027 4.00009 8.58135 4 13.9795C4 15.6982 4.44035 17.386 5.2793 18.8818L5.45215 19.1777L5.81641 19.7793L4.79883 22.3271L4.35059 23.4482L5.45996 22.9717L7.89453 21.9258L8.45898 22.293C9.97605 23.278 11.7196 23.8027 13.5 23.8027C18.755 23.8027 23 19.3781 23 13.9795C22.9999 8.58099 18.7547 4.16016 13.5 4.16016Z" fill="#BBFF7F" stroke="#BBFF7F"/>
<path d="M12.2412 11.926L11.5488 12.6438L11.2139 12.9915L11.5488 13.3381L14.0938 15.9749L14.4531 16.3479L14.8135 15.9749L15.4863 15.2766L17.8008 16.7151L16.959 17.5862L16.958 17.5872C16.4536 18.1108 15.6389 18.1115 15.1309 17.5862H15.1299C15.1293 17.5856 15.129 17.5843 15.1279 17.5833C15.1255 17.5807 15.121 17.5765 15.1162 17.5715C15.1066 17.5616 15.0926 17.5467 15.0742 17.5276C15.0369 17.489 14.9817 17.4327 14.9121 17.3606C14.7729 17.2164 14.5745 17.01 14.3359 16.7629C13.8588 16.2687 13.223 15.6094 12.5869 14.9504C11.9608 14.3018 11.3338 13.6539 10.8594 13.1624H10.8604L10.0752 12.3489C10.0681 12.3416 10.0624 12.3353 10.0576 12.3303L10.042 12.3147C9.52615 11.7804 9.52622 10.9077 10.042 10.3733L10.8535 9.53247L12.2412 11.926Z" fill="#BBFF7F" stroke="#BBFF7F"/>
</svg>
